<svg width="125" height="44" viewBox="0 0 125 44" fill="none" xmlns="http://www.w3.org/2000/svg">
<path d="M8.70996 30V12.6657H15.3457C16.5984 12.6657 17.6395 12.8632 18.469 13.2582C19.3041 13.6475 19.9276 14.1808 20.3395 14.8579C20.7571 15.535 20.9659 16.3024 20.9659 17.1601C20.9659 17.8654 20.8304 18.4692 20.5596 18.9714C20.2887 19.4679 19.9248 19.8714 19.4677 20.1817C19.0107 20.4921 18.5 20.715 17.9357 20.8504V21.0197C18.5508 21.0535 19.1405 21.2426 19.7047 21.5868C20.2746 21.9253 20.7401 22.405 21.1013 23.0257C21.4624 23.6463 21.643 24.3968 21.643 25.2771C21.643 26.1743 21.4257 26.9812 20.9912 27.6978C20.5568 28.4088 19.9022 28.9702 19.0276 29.3821C18.153 29.794 17.0527 30 15.7266 30H8.70996ZM11.8501 27.3762H15.2273C16.3671 27.3762 17.1881 27.1589 17.6903 26.7244C18.1981 26.2843 18.452 25.72 18.452 25.0316C18.452 24.5181 18.3251 24.0554 18.0712 23.6435C17.8172 23.226 17.4561 22.8987 16.9878 22.6617C16.5194 22.4191 15.9608 22.2977 15.3119 22.2977H11.8501V27.3762ZM11.8501 20.0379H14.9564C15.4981 20.0379 15.9862 19.9391 16.4207 19.7416C16.8552 19.5385 17.1965 19.2535 17.4448 18.8867C17.6987 18.5143 17.8257 18.0742 17.8257 17.5664C17.8257 16.8949 17.5887 16.3419 17.1147 15.9074C16.6464 15.4729 15.9495 15.2557 15.0241 15.2557H11.8501V20.0379Z" fill="black"/>
<path fill-rule="evenodd" clip-rule="evenodd" d="M42.0933 15.1758H28.4844V12.6689H42.0933V15.1758Z" fill="#F66135"/>
<path fill-rule="evenodd" clip-rule="evenodd" d="M42.0933 22.3389H28.4844V19.832H42.0933V22.3389Z" fill="#F66135"/>
<path fill-rule="evenodd" clip-rule="evenodd" d="M42.0933 29.502H28.4844V26.995H42.0933V29.502Z" fill="#F66135"/>
<path d="M106.669 30.7783H100.795V13.444H106.787C108.508 13.444 109.987 13.791 111.223 14.4851C112.464 15.1735 113.418 16.1638 114.083 17.456C114.749 18.7481 115.082 20.2942 115.082 22.0942C115.082 23.8999 114.746 25.4516 114.075 26.7494C113.409 28.0473 112.447 29.0432 111.189 29.7372C109.936 30.4313 108.429 30.7783 106.669 30.7783ZM103.935 28.0614H106.517C107.724 28.0614 108.731 27.8413 109.538 27.4012C110.345 26.9554 110.952 26.2924 111.358 25.4121C111.764 24.5262 111.967 23.4203 111.967 22.0942C111.967 20.7682 111.764 19.6679 111.358 18.7933C110.952 17.913 110.351 17.2556 109.555 16.8212C108.765 16.381 107.783 16.161 106.61 16.161H103.935V28.0614Z" fill="black"/>
<path d="M97.3734 13.444V30.7783H94.5802L86.4125 18.971H86.2686V30.7783H83.1284V13.444H85.9385L94.0978 25.2598H94.2501V13.444H97.3734Z" fill="black"/>
<path d="M80.1597 22.1112C80.1597 23.9789 79.8099 25.5786 79.1102 26.9103C78.4162 28.2363 77.4682 29.252 76.2663 29.9573C75.0701 30.6626 73.713 31.0153 72.1951 31.0153C70.6772 31.0153 69.3173 30.6626 68.1155 29.9573C66.9192 29.2463 65.9712 28.2278 65.2715 26.9018C64.5775 25.5701 64.2305 23.9733 64.2305 22.1112C64.2305 20.2434 64.5775 18.6466 65.2715 17.3205C65.9712 15.9889 66.9192 14.9704 68.1155 14.265C69.3173 13.5597 70.6772 13.207 72.1951 13.207C73.713 13.207 75.0701 13.5597 76.2663 14.265C77.4682 14.9704 78.4162 15.9889 79.1102 17.3205C79.8099 18.6466 80.1597 20.2434 80.1597 22.1112ZM77.0027 22.1112C77.0027 20.7964 76.7967 19.6876 76.3848 18.7848C75.9785 17.8763 75.4143 17.1908 74.692 16.7281C73.9697 16.2597 73.1374 16.0255 72.1951 16.0255C71.2528 16.0255 70.4205 16.2597 69.6982 16.7281C68.976 17.1908 68.4089 17.8763 67.997 18.7848C67.5907 19.6876 67.3875 20.7964 67.3875 22.1112C67.3875 23.4259 67.5907 24.5375 67.997 25.446C68.4089 26.3488 68.976 27.0344 69.6982 27.5027C70.4205 27.9654 71.2528 28.1968 72.1951 28.1968C73.1374 28.1968 73.9697 27.9654 74.692 27.5027C75.4143 27.0344 75.9785 26.3488 76.3848 25.446C76.7967 24.5375 77.0027 23.4259 77.0027 22.1112Z" fill="black"/>
<path d="M47.6812 13.444H51.2276L55.468 21.1124H55.6373L59.8778 13.444H63.4242L57.1185 24.3118V30.7783H53.9868V24.3118L47.6812 13.444Z" fill="black"/>
</svg>
