<svg width="1440" height="82" viewBox="0 0 1440 82" fill="none" xmlns="http://www.w3.org/2000/svg">
<rect width="1440" height="82" fill="white" fill-opacity="0.92"/>
<path d="M98.7097 51V33.6657H105.346C106.598 33.6657 107.639 33.8632 108.469 34.2582C109.304 34.6475 109.927 35.1808 110.339 35.8579C110.757 36.535 110.966 37.3024 110.966 38.1601C110.966 38.8654 110.83 39.4692 110.559 39.9714C110.289 40.4679 109.925 40.8714 109.467 41.1817C109.01 41.4921 108.5 41.715 107.936 41.8504V42.0197C108.551 42.0535 109.14 42.2426 109.704 42.5868C110.274 42.9253 110.74 43.405 111.101 44.0257C111.462 44.6463 111.643 45.3968 111.643 46.2771C111.643 47.1743 111.426 47.9812 110.991 48.6978C110.557 49.4088 109.902 49.9702 109.027 50.3821C108.153 50.794 107.052 51 105.726 51H98.7097ZM101.85 48.3762H105.227C106.367 48.3762 107.188 48.1589 107.69 47.7244C108.198 47.2843 108.452 46.72 108.452 46.0316C108.452 45.5181 108.325 45.0554 108.071 44.6435C107.817 44.226 107.456 43.8987 106.988 43.6617C106.519 43.4191 105.961 43.2977 105.312 43.2977H101.85V48.3762ZM101.85 41.0379H104.956C105.498 41.0379 105.986 40.9391 106.42 40.7416C106.855 40.5385 107.196 40.2535 107.445 39.8867C107.699 39.5143 107.825 39.0742 107.825 38.5664C107.825 37.8949 107.588 37.3419 107.115 36.9074C106.646 36.4729 105.949 36.2557 105.024 36.2557H101.85V41.0379Z" fill="black"/>
<path fill-rule="evenodd" clip-rule="evenodd" d="M132.093 36.1758H118.484V33.6689H132.093V36.1758Z" fill="#F66135"/>
<path fill-rule="evenodd" clip-rule="evenodd" d="M132.093 43.3389H118.484V40.832H132.093V43.3389Z" fill="#F66135"/>
<path fill-rule="evenodd" clip-rule="evenodd" d="M132.093 50.502H118.484V47.995H132.093V50.502Z" fill="#F66135"/>
<path d="M196.669 51.7783H190.795V34.444H196.787C198.508 34.444 199.987 34.791 201.222 35.4851C202.464 36.1735 203.418 37.1638 204.083 38.456C204.749 39.7481 205.082 41.2942 205.082 43.0942C205.082 44.8999 204.746 46.4516 204.075 47.7494C203.409 49.0473 202.447 50.0432 201.189 50.7372C199.936 51.4313 198.429 51.7783 196.669 51.7783ZM193.935 49.0614H196.517C197.724 49.0614 198.731 48.8413 199.538 48.4012C200.345 47.9554 200.952 47.2924 201.358 46.4121C201.764 45.5262 201.967 44.4203 201.967 43.0942C201.967 41.7682 201.764 40.6679 201.358 39.7933C200.952 38.913 200.351 38.2556 199.555 37.8212C198.765 37.381 197.783 37.161 196.61 37.161H193.935V49.0614Z" fill="black"/>
<path d="M187.373 34.444V51.7783H184.58L176.412 39.971H176.268V51.7783H173.128V34.444H175.938L184.098 46.2598H184.25V34.444H187.373Z" fill="black"/>
<path d="M170.16 43.1112C170.16 44.9789 169.81 46.5786 169.11 47.9103C168.416 49.2363 167.468 50.252 166.266 50.9573C165.07 51.6626 163.713 52.0153 162.195 52.0153C160.677 52.0153 159.317 51.6626 158.115 50.9573C156.919 50.2463 155.971 49.2278 155.271 47.9018C154.577 46.5701 154.23 44.9733 154.23 43.1112C154.23 41.2434 154.577 39.6466 155.271 38.3205C155.971 36.9889 156.919 35.9704 158.115 35.265C159.317 34.5597 160.677 34.207 162.195 34.207C163.713 34.207 165.07 34.5597 166.266 35.265C167.468 35.9704 168.416 36.9889 169.11 38.3205C169.81 39.6466 170.16 41.2434 170.16 43.1112ZM167.002 43.1112C167.002 41.7964 166.797 40.6876 166.385 39.7848C165.978 38.8763 165.414 38.1908 164.692 37.7281C163.97 37.2597 163.137 37.0255 162.195 37.0255C161.253 37.0255 160.42 37.2597 159.698 37.7281C158.976 38.1908 158.409 38.8763 157.997 39.7848C157.59 40.6876 157.387 41.7964 157.387 43.1112C157.387 44.4259 157.59 45.5375 157.997 46.446C158.409 47.3488 158.976 48.0344 159.698 48.5027C160.42 48.9654 161.253 49.1968 162.195 49.1968C163.137 49.1968 163.97 48.9654 164.692 48.5027C165.414 48.0344 165.978 47.3488 166.385 46.446C166.797 45.5375 167.002 44.4259 167.002 43.1112Z" fill="black"/>
<path d="M137.681 34.444H141.227L145.468 42.1124H145.637L149.878 34.444H153.424L147.118 45.3118V51.7783H143.987V45.3118L137.681 34.444Z" fill="black"/>
<rect x="442" y="21" width="533" height="44" rx="22" fill="white"/>
<rect x="442.5" y="21.5" width="532" height="43" rx="21.5" stroke="#838396" stroke-opacity="0.22"/>
<path d="M471.575 41.1293H470.024C469.964 40.7978 469.853 40.5062 469.691 40.2543C469.529 40.0024 469.33 39.7886 469.094 39.6129C468.859 39.4373 468.596 39.3047 468.304 39.2152C468.016 39.1257 467.709 39.081 467.384 39.081C466.798 39.081 466.272 39.2285 465.808 39.5234C465.348 39.8184 464.983 40.2509 464.714 40.821C464.449 41.3911 464.317 42.0871 464.317 42.9091C464.317 43.7377 464.449 44.437 464.714 45.0071C464.983 45.5772 465.349 46.008 465.813 46.2997C466.277 46.5914 466.799 46.7372 467.379 46.7372C467.701 46.7372 468.006 46.6941 468.294 46.608C468.586 46.5185 468.849 46.3875 469.085 46.2152C469.32 46.0429 469.519 45.8324 469.681 45.5838C469.847 45.3319 469.961 45.0436 470.024 44.7188L471.575 44.7237C471.492 45.2242 471.332 45.6849 471.093 46.1058C470.858 46.5234 470.554 46.8847 470.183 47.1896C469.815 47.4912 469.394 47.7249 468.92 47.8906C468.446 48.0563 467.929 48.1392 467.369 48.1392C466.488 48.1392 465.702 47.9304 465.013 47.5128C464.323 47.0919 463.78 46.4903 463.382 45.7081C462.988 44.9259 462.79 43.9929 462.79 42.9091C462.79 41.822 462.989 40.889 463.387 40.1101C463.785 39.3279 464.328 38.728 465.018 38.3104C465.707 37.8894 466.491 37.679 467.369 37.679C467.91 37.679 468.413 37.7569 468.881 37.9126C469.351 38.0651 469.774 38.2905 470.148 38.5888C470.523 38.8838 470.833 39.245 471.078 39.6726C471.323 40.0968 471.489 40.5824 471.575 41.1293ZM476.511 48.1541C475.795 48.1541 475.17 47.9901 474.637 47.6619C474.103 47.3338 473.689 46.8748 473.394 46.2848C473.099 45.6948 472.951 45.0054 472.951 44.2166C472.951 43.4245 473.099 42.7318 473.394 42.1385C473.689 41.5452 474.103 41.0845 474.637 40.7564C475.17 40.4283 475.795 40.2642 476.511 40.2642C477.227 40.2642 477.852 40.4283 478.385 40.7564C478.919 41.0845 479.333 41.5452 479.628 42.1385C479.923 42.7318 480.07 43.4245 480.07 44.2166C480.07 45.0054 479.923 45.6948 479.628 46.2848C479.333 46.8748 478.919 47.3338 478.385 47.6619C477.852 47.9901 477.227 48.1541 476.511 48.1541ZM476.516 46.9062C476.98 46.9062 477.364 46.7836 477.669 46.5384C477.974 46.2931 478.2 45.9666 478.345 45.5589C478.494 45.1513 478.569 44.7022 478.569 44.2116C478.569 43.7244 478.494 43.277 478.345 42.8693C478.2 42.4583 477.974 42.1286 477.669 41.88C477.364 41.6314 476.98 41.5071 476.516 41.5071C476.048 41.5071 475.661 41.6314 475.352 41.88C475.048 42.1286 474.82 42.4583 474.671 42.8693C474.526 43.277 474.453 43.7244 474.453 44.2116C474.453 44.7022 474.526 45.1513 474.671 45.5589C474.82 45.9666 475.048 46.2931 475.352 46.5384C475.661 46.7836 476.048 46.9062 476.516 46.9062ZM481.73 48V40.3636H483.157V41.6065H483.251C483.41 41.1856 483.67 40.8575 484.032 40.6222C484.393 40.3835 484.825 40.2642 485.329 40.2642C485.84 40.2642 486.267 40.3835 486.612 40.6222C486.96 40.8608 487.217 41.1889 487.382 41.6065H487.462C487.644 41.1989 487.934 40.8741 488.332 40.6321C488.73 40.3868 489.204 40.2642 489.754 40.2642C490.447 40.2642 491.012 40.4813 491.449 40.9155C491.89 41.3497 492.11 42.0043 492.11 42.8793V48H490.624V43.0185C490.624 42.5014 490.483 42.1269 490.201 41.8949C489.92 41.6629 489.583 41.5469 489.192 41.5469C488.708 41.5469 488.332 41.696 488.064 41.9943C487.795 42.2893 487.661 42.6688 487.661 43.1328V48H486.179V42.924C486.179 42.5097 486.05 42.1766 485.792 41.9247C485.533 41.6728 485.197 41.5469 484.782 41.5469C484.501 41.5469 484.24 41.6214 484.002 41.7706C483.766 41.9164 483.576 42.1203 483.43 42.3821C483.288 42.6439 483.216 42.9472 483.216 43.2919V48H481.73ZM494.103 50.8636V40.3636H495.555V41.6016H495.679C495.765 41.4425 495.889 41.2585 496.052 41.0497C496.214 40.8409 496.439 40.6586 496.728 40.5028C497.016 40.3438 497.397 40.2642 497.871 40.2642C498.488 40.2642 499.038 40.42 499.522 40.7315C500.006 41.0431 500.385 41.4922 500.66 42.0788C500.939 42.6655 501.078 43.3714 501.078 44.1967C501.078 45.022 500.94 45.7296 500.665 46.3196C500.39 46.9062 500.012 47.3587 499.532 47.6768C499.051 47.9917 498.503 48.1491 497.886 48.1491C497.422 48.1491 497.043 48.0713 496.748 47.9155C496.456 47.7597 496.227 47.5774 496.062 47.3686C495.896 47.1598 495.768 46.9742 495.679 46.8118H495.589V50.8636H494.103ZM495.559 44.1818C495.559 44.7187 495.637 45.1894 495.793 45.5938C495.949 45.9981 496.174 46.3146 496.469 46.5433C496.764 46.7687 497.126 46.8814 497.553 46.8814C497.997 46.8814 498.368 46.7637 498.667 46.5284C498.965 46.2898 499.19 45.9666 499.343 45.5589C499.499 45.1513 499.577 44.6922 499.577 44.1818C499.577 43.678 499.5 43.2256 499.348 42.8246C499.199 42.4235 498.973 42.107 498.672 41.875C498.373 41.643 498.001 41.527 497.553 41.527C497.122 41.527 496.758 41.638 496.459 41.8601C496.164 42.0821 495.941 42.392 495.788 42.7898C495.636 43.1875 495.559 43.6515 495.559 44.1818ZM504.966 48.169C504.482 48.169 504.044 48.0795 503.653 47.9006C503.262 47.7183 502.952 47.4548 502.724 47.1101C502.498 46.7654 502.385 46.3428 502.385 45.8423C502.385 45.4115 502.468 45.0568 502.634 44.7784C502.8 44.5 503.023 44.2796 503.305 44.1172C503.587 43.9548 503.902 43.8321 504.25 43.7493C504.598 43.6664 504.952 43.6035 505.314 43.5604C505.771 43.5073 506.142 43.4643 506.427 43.4311C506.712 43.3946 506.92 43.3366 507.049 43.2571C507.178 43.1776 507.243 43.0483 507.243 42.8693V42.8345C507.243 42.4003 507.12 42.0639 506.875 41.8253C506.633 41.5866 506.272 41.4673 505.791 41.4673C505.291 41.4673 504.896 41.5784 504.608 41.8004C504.323 42.0192 504.126 42.2628 504.016 42.5312L502.619 42.2131C502.785 41.7491 503.027 41.3745 503.345 41.0895C503.666 40.8011 504.036 40.5923 504.454 40.4631C504.871 40.3305 505.31 40.2642 505.771 40.2642C506.076 40.2642 506.399 40.3007 506.741 40.3736C507.085 40.4432 507.407 40.5724 507.705 40.7614C508.007 40.9503 508.254 41.2204 508.446 41.5717C508.638 41.9197 508.734 42.3722 508.734 42.929V48H507.282V46.956H507.223C507.127 47.1482 506.983 47.3371 506.79 47.5227C506.598 47.7083 506.351 47.8625 506.05 47.9851C505.748 48.1077 505.387 48.169 504.966 48.169ZM505.289 46.9759C505.7 46.9759 506.051 46.8946 506.343 46.7322C506.638 46.5698 506.862 46.3577 507.014 46.0959C507.17 45.8307 507.248 45.5473 507.248 45.2457V44.2614C507.195 44.3144 507.092 44.3641 506.939 44.4105C506.79 44.4536 506.62 44.4917 506.427 44.5249C506.235 44.5547 506.048 44.5829 505.866 44.6094C505.683 44.6326 505.531 44.6525 505.408 44.669C505.12 44.7055 504.856 44.7668 504.618 44.853C504.382 44.9392 504.193 45.0634 504.051 45.2259C503.912 45.3849 503.842 45.5971 503.842 45.8622C503.842 46.2301 503.978 46.5085 504.25 46.6974C504.522 46.883 504.868 46.9759 505.289 46.9759ZM512.201 43.4659V48H510.714V40.3636H512.141V41.6065H512.235C512.411 41.2022 512.686 40.8774 513.061 40.6321C513.439 40.3868 513.914 40.2642 514.488 40.2642C515.008 40.2642 515.464 40.3736 515.855 40.5923C516.246 40.8078 516.549 41.1293 516.765 41.5568C516.98 41.9844 517.088 42.513 517.088 43.1428V48H515.601V43.3217C515.601 42.7682 515.457 42.3357 515.169 42.0241C514.88 41.7093 514.484 41.5518 513.98 41.5518C513.636 41.5518 513.329 41.6264 513.061 41.7756C512.796 41.9247 512.585 42.1435 512.429 42.4318C512.277 42.7169 512.201 43.0616 512.201 43.4659ZM519.748 50.8636C519.525 50.8636 519.323 50.8454 519.141 50.8089C518.959 50.7758 518.823 50.7393 518.733 50.6996L519.091 49.4815C519.363 49.5545 519.605 49.5859 519.817 49.576C520.029 49.5661 520.217 49.4865 520.379 49.3374C520.545 49.1882 520.69 48.9446 520.816 48.6065L521 48.0994L518.206 40.3636H519.797L521.731 46.2898H521.811L523.745 40.3636H525.341L522.194 49.0192C522.048 49.4169 521.862 49.7533 521.637 50.0284C521.411 50.3068 521.143 50.5156 520.831 50.6548C520.52 50.794 520.158 50.8636 519.748 50.8636Z" fill="#0F0F0F"/>
<path d="M579.575 41.1293H578.024C577.964 40.7978 577.853 40.5062 577.691 40.2543C577.529 40.0024 577.33 39.7886 577.094 39.6129C576.859 39.4373 576.596 39.3047 576.304 39.2152C576.016 39.1257 575.709 39.081 575.384 39.081C574.798 39.081 574.272 39.2285 573.808 39.5234C573.348 39.8184 572.983 40.2509 572.714 40.821C572.449 41.3911 572.317 42.0871 572.317 42.9091C572.317 43.7377 572.449 44.437 572.714 45.0071C572.983 45.5772 573.349 46.008 573.813 46.2997C574.277 46.5914 574.799 46.7372 575.379 46.7372C575.701 46.7372 576.006 46.6941 576.294 46.608C576.586 46.5185 576.849 46.3875 577.085 46.2152C577.32 46.0429 577.519 45.8324 577.681 45.5838C577.847 45.3319 577.961 45.0436 578.024 44.7188L579.575 44.7237C579.492 45.2242 579.332 45.6849 579.093 46.1058C578.858 46.5234 578.554 46.8847 578.183 47.1896C577.815 47.4912 577.394 47.7249 576.92 47.8906C576.446 48.0563 575.929 48.1392 575.369 48.1392C574.488 48.1392 573.702 47.9304 573.013 47.5128C572.323 47.0919 571.78 46.4903 571.382 45.7081C570.988 44.9259 570.79 43.9929 570.79 42.9091C570.79 41.822 570.989 40.889 571.387 40.1101C571.785 39.3279 572.328 38.728 573.018 38.3104C573.707 37.8894 574.491 37.679 575.369 37.679C575.91 37.679 576.413 37.7569 576.881 37.9126C577.351 38.0651 577.774 38.2905 578.148 38.5888C578.523 38.8838 578.833 39.245 579.078 39.6726C579.323 40.0968 579.489 40.5824 579.575 41.1293ZM583.517 48.169C583.033 48.169 582.595 48.0795 582.204 47.9006C581.813 47.7183 581.503 47.4548 581.274 47.1101C581.049 46.7654 580.936 46.3428 580.936 45.8423C580.936 45.4115 581.019 45.0568 581.185 44.7784C581.351 44.5 581.574 44.2796 581.856 44.1172C582.138 43.9548 582.453 43.8321 582.801 43.7493C583.149 43.6664 583.503 43.6035 583.865 43.5604C584.322 43.5073 584.693 43.4643 584.978 43.4311C585.263 43.3946 585.47 43.3366 585.6 43.2571C585.729 43.1776 585.794 43.0483 585.794 42.8693V42.8345C585.794 42.4003 585.671 42.0639 585.426 41.8253C585.184 41.5866 584.822 41.4673 584.342 41.4673C583.841 41.4673 583.447 41.5784 583.159 41.8004C582.874 42.0192 582.676 42.2628 582.567 42.5312L581.17 42.2131C581.336 41.7491 581.578 41.3745 581.896 41.0895C582.217 40.8011 582.587 40.5923 583.004 40.4631C583.422 40.3305 583.861 40.2642 584.322 40.2642C584.627 40.2642 584.95 40.3007 585.291 40.3736C585.636 40.4432 585.958 40.5724 586.256 40.7614C586.557 40.9503 586.804 41.2204 586.997 41.5717C587.189 41.9197 587.285 42.3722 587.285 42.929V48H585.833V46.956H585.774C585.677 47.1482 585.533 47.3371 585.341 47.5227C585.149 47.7083 584.902 47.8625 584.6 47.9851C584.299 48.1077 583.937 48.169 583.517 48.169ZM583.84 46.9759C584.251 46.9759 584.602 46.8946 584.894 46.7322C585.189 46.5698 585.412 46.3577 585.565 46.0959C585.721 45.8307 585.798 45.5473 585.798 45.2457V44.2614C585.745 44.3144 585.643 44.3641 585.49 44.4105C585.341 44.4536 585.17 44.4917 584.978 44.5249C584.786 44.5547 584.599 44.5829 584.416 44.6094C584.234 44.6326 584.082 44.6525 583.959 44.669C583.671 44.7055 583.407 44.7668 583.169 44.853C582.933 44.9392 582.744 45.0634 582.602 45.2259C582.463 45.3849 582.393 45.5971 582.393 45.8622C582.393 46.2301 582.529 46.5085 582.801 46.6974C583.072 46.883 583.419 46.9759 583.84 46.9759ZM594.987 42.228L593.64 42.4666C593.584 42.2943 593.494 42.1302 593.371 41.9744C593.252 41.8187 593.09 41.6911 592.884 41.5916C592.679 41.4922 592.422 41.4425 592.114 41.4425C591.693 41.4425 591.341 41.5369 591.06 41.7259C590.778 41.9115 590.637 42.1518 590.637 42.4467C590.637 42.7019 590.732 42.9074 590.92 43.0632C591.109 43.219 591.414 43.3466 591.835 43.446L593.048 43.7244C593.751 43.8868 594.275 44.1371 594.619 44.4751C594.964 44.8132 595.136 45.2524 595.136 45.7926C595.136 46.25 595.004 46.6577 594.739 47.0156C594.477 47.3703 594.111 47.6487 593.64 47.8509C593.173 48.053 592.631 48.1541 592.014 48.1541C591.159 48.1541 590.461 47.9718 589.921 47.6072C589.381 47.2393 589.049 46.7173 588.927 46.0412L590.364 45.8224C590.453 46.197 590.637 46.4804 590.915 46.6726C591.194 46.8615 591.557 46.956 592.004 46.956C592.491 46.956 592.881 46.8549 593.173 46.6527C593.464 46.4472 593.61 46.197 593.61 45.902C593.61 45.6634 593.521 45.4628 593.342 45.3004C593.166 45.138 592.896 45.0154 592.531 44.9325L591.239 44.6491C590.526 44.4867 589.999 44.2282 589.658 43.8736C589.32 43.5189 589.151 43.0698 589.151 42.5263C589.151 42.0755 589.277 41.6811 589.528 41.343C589.78 41.005 590.128 40.7415 590.572 40.5526C591.017 40.3603 591.525 40.2642 592.099 40.2642C592.924 40.2642 593.574 40.4432 594.048 40.8011C594.522 41.1558 594.835 41.6314 594.987 42.228ZM600.062 48.1541C599.31 48.1541 598.662 47.9934 598.118 47.6719C597.578 47.3471 597.16 46.8913 596.865 46.3047C596.574 45.7147 596.428 45.0237 596.428 44.2315C596.428 43.4493 596.574 42.7599 596.865 42.1634C597.16 41.5668 597.571 41.1011 598.098 40.7663C598.628 40.4316 599.248 40.2642 599.958 40.2642C600.388 40.2642 600.806 40.3355 601.21 40.478C601.615 40.6205 601.978 40.8442 602.299 41.1491C602.621 41.4541 602.874 41.8501 603.06 42.3374C603.245 42.8213 603.338 43.4096 603.338 44.1023V44.6293H597.268V43.5156H601.882C601.882 43.1245 601.802 42.7782 601.643 42.4766C601.484 42.1716 601.26 41.9313 600.972 41.7557C600.687 41.58 600.352 41.4922 599.968 41.4922C599.55 41.4922 599.185 41.5949 598.874 41.8004C598.566 42.0026 598.327 42.2678 598.158 42.5959C597.992 42.9207 597.909 43.2737 597.909 43.6548V44.5249C597.909 45.0353 597.999 45.4695 598.178 45.8274C598.36 46.1854 598.614 46.4588 598.938 46.6477C599.263 46.8333 599.643 46.9261 600.077 46.9261C600.359 46.9261 600.615 46.8864 600.847 46.8068C601.079 46.724 601.28 46.6013 601.449 46.4389C601.618 46.2765 601.747 46.076 601.837 45.8374L603.244 46.0909C603.131 46.5052 602.929 46.8681 602.637 47.1797C602.349 47.4879 601.986 47.7282 601.548 47.9006C601.114 48.0696 600.619 48.1541 600.062 48.1541ZM614.415 42.228L613.068 42.4666C613.011 42.2943 612.922 42.1302 612.799 41.9744C612.68 41.8187 612.517 41.6911 612.312 41.5916C612.106 41.4922 611.85 41.4425 611.541 41.4425C611.12 41.4425 610.769 41.5369 610.487 41.7259C610.206 41.9115 610.065 42.1518 610.065 42.4467C610.065 42.7019 610.159 42.9074 610.348 43.0632C610.537 43.219 610.842 43.3466 611.263 43.446L612.476 43.7244C613.179 43.8868 613.702 44.1371 614.047 44.4751C614.392 44.8132 614.564 45.2524 614.564 45.7926C614.564 46.25 614.432 46.6577 614.166 47.0156C613.905 47.3703 613.538 47.6487 613.068 47.8509C612.6 48.053 612.058 48.1541 611.442 48.1541C610.587 48.1541 609.889 47.9718 609.349 47.6072C608.809 47.2393 608.477 46.7173 608.355 46.0412L609.791 45.8224C609.881 46.197 610.065 46.4804 610.343 46.6726C610.622 46.8615 610.985 46.956 611.432 46.956C611.919 46.956 612.309 46.8549 612.6 46.6527C612.892 46.4472 613.038 46.197 613.038 45.902C613.038 45.6634 612.948 45.4628 612.769 45.3004C612.594 45.138 612.324 45.0154 611.959 44.9325L610.666 44.6491C609.954 44.4867 609.427 44.2282 609.085 43.8736C608.747 43.5189 608.578 43.0698 608.578 42.5263C608.578 42.0755 608.704 41.6811 608.956 41.343C609.208 41.005 609.556 40.7415 610 40.5526C610.444 40.3603 610.953 40.2642 611.526 40.2642C612.352 40.2642 613.001 40.4432 613.475 40.8011C613.949 41.1558 614.262 41.6314 614.415 42.228ZM619.763 40.3636V41.5568H615.592V40.3636H619.763ZM616.711 38.5341H618.197V45.7578C618.197 46.0462 618.24 46.2633 618.326 46.4091C618.413 46.5516 618.524 46.6494 618.659 46.7024C618.799 46.7521 618.949 46.777 619.112 46.777C619.231 46.777 619.336 46.7687 619.425 46.7521C619.515 46.7356 619.584 46.7223 619.634 46.7124L619.902 47.9403C619.816 47.9735 619.694 48.0066 619.534 48.0398C619.375 48.0762 619.176 48.0961 618.938 48.0994C618.547 48.1061 618.182 48.0365 617.844 47.8906C617.506 47.7448 617.233 47.5194 617.024 47.2145C616.815 46.9096 616.711 46.5268 616.711 46.0661V38.5341ZM626.245 44.8331V40.3636H627.736V48H626.275V46.6776H626.195C626.019 47.0852 625.738 47.425 625.35 47.6967C624.965 47.9652 624.487 48.0994 623.913 48.0994C623.423 48.0994 622.988 47.9917 622.611 47.7763C622.236 47.5575 621.941 47.2344 621.726 46.8068C621.514 46.3793 621.407 45.8506 621.407 45.2209V40.3636H622.894V45.0419C622.894 45.5623 623.038 45.9766 623.327 46.2848C623.615 46.593 623.989 46.7472 624.45 46.7472C624.729 46.7472 625.005 46.6776 625.28 46.5384C625.559 46.3991 625.789 46.1887 625.971 45.907C626.157 45.6252 626.248 45.2673 626.245 44.8331ZM632.592 48.1491C631.976 48.1491 631.426 47.9917 630.942 47.6768C630.461 47.3587 630.083 46.9062 629.808 46.3196C629.536 45.7296 629.401 45.022 629.401 44.1967C629.401 43.3714 629.538 42.6655 629.813 42.0788C630.092 41.4922 630.473 41.0431 630.957 40.7315C631.441 40.42 631.989 40.2642 632.602 40.2642C633.076 40.2642 633.457 40.3438 633.746 40.5028C634.037 40.6586 634.263 40.8409 634.422 41.0497C634.584 41.2585 634.71 41.4425 634.8 41.6016H634.889V37.8182H636.376V48H634.924V46.8118H634.8C634.71 46.9742 634.581 47.1598 634.412 47.3686C634.246 47.5774 634.018 47.7597 633.726 47.9155C633.434 48.0713 633.056 48.1491 632.592 48.1491ZM632.92 46.8814C633.348 46.8814 633.709 46.7687 634.004 46.5433C634.303 46.3146 634.528 45.9981 634.68 45.5938C634.836 45.1894 634.914 44.7187 634.914 44.1818C634.914 43.6515 634.838 43.1875 634.685 42.7898C634.533 42.392 634.309 42.0821 634.014 41.8601C633.719 41.638 633.355 41.527 632.92 41.527C632.473 41.527 632.1 41.643 631.802 41.875C631.504 42.107 631.278 42.4235 631.126 42.8246C630.977 43.2256 630.902 43.678 630.902 44.1818C630.902 44.6922 630.978 45.1513 631.131 45.5589C631.283 45.9666 631.509 46.2898 631.807 46.5284C632.108 46.7637 632.48 46.8814 632.92 46.8814ZM638.497 48V40.3636H639.984V48H638.497ZM639.248 39.1854C638.99 39.1854 638.767 39.0992 638.582 38.9268C638.4 38.7512 638.308 38.5424 638.308 38.3004C638.308 38.0552 638.4 37.8464 638.582 37.674C638.767 37.4983 638.99 37.4105 639.248 37.4105C639.507 37.4105 639.727 37.4983 639.909 37.674C640.095 37.8464 640.188 38.0552 640.188 38.3004C640.188 38.5424 640.095 38.7512 639.909 38.9268C639.727 39.0992 639.507 39.1854 639.248 39.1854ZM645.275 48.1541C644.522 48.1541 643.875 47.9934 643.331 47.6719C642.791 47.3471 642.373 46.8913 642.078 46.3047C641.786 45.7147 641.641 45.0237 641.641 44.2315C641.641 43.4493 641.786 42.7599 642.078 42.1634C642.373 41.5668 642.784 41.1011 643.311 40.7663C643.841 40.4316 644.461 40.2642 645.17 40.2642C645.601 40.2642 646.019 40.3355 646.423 40.478C646.828 40.6205 647.191 40.8442 647.512 41.1491C647.834 41.4541 648.087 41.8501 648.273 42.3374C648.458 42.8213 648.551 43.4096 648.551 44.1023V44.6293H642.481V43.5156H647.094C647.094 43.1245 647.015 42.7782 646.856 42.4766C646.697 42.1716 646.473 41.9313 646.185 41.7557C645.9 41.58 645.565 41.4922 645.18 41.4922C644.763 41.4922 644.398 41.5949 644.087 41.8004C643.778 42.0026 643.54 42.2678 643.371 42.5959C643.205 42.9207 643.122 43.2737 643.122 43.6548V44.5249C643.122 45.0353 643.212 45.4695 643.391 45.8274C643.573 46.1854 643.826 46.4588 644.151 46.6477C644.476 46.8333 644.856 46.9261 645.29 46.9261C645.571 46.9261 645.828 46.8864 646.06 46.8068C646.292 46.724 646.493 46.6013 646.662 46.4389C646.831 46.2765 646.96 46.076 647.05 45.8374L648.457 46.0909C648.344 46.5052 648.142 46.8681 647.85 47.1797C647.562 47.4879 647.199 47.7282 646.761 47.9006C646.327 48.0696 645.832 48.1541 645.275 48.1541ZM655.923 42.228L654.575 42.4666C654.519 42.2943 654.43 42.1302 654.307 41.9744C654.188 41.8187 654.025 41.6911 653.82 41.5916C653.614 41.4922 653.357 41.4425 653.049 41.4425C652.628 41.4425 652.277 41.5369 651.995 41.7259C651.713 41.9115 651.573 42.1518 651.573 42.4467C651.573 42.7019 651.667 42.9074 651.856 43.0632C652.045 43.219 652.35 43.3466 652.771 43.446L653.984 43.7244C654.686 43.8868 655.21 44.1371 655.555 44.4751C655.9 44.8132 656.072 45.2524 656.072 45.7926C656.072 46.25 655.939 46.6577 655.674 47.0156C655.412 47.3703 655.046 47.6487 654.575 47.8509C654.108 48.053 653.566 48.1541 652.95 48.1541C652.095 48.1541 651.397 47.9718 650.857 47.6072C650.316 47.2393 649.985 46.7173 649.862 46.0412L651.299 45.8224C651.389 46.197 651.573 46.4804 651.851 46.6726C652.129 46.8615 652.492 46.956 652.94 46.956C653.427 46.956 653.816 46.8549 654.108 46.6527C654.4 46.4472 654.546 46.197 654.546 45.902C654.546 45.6634 654.456 45.4628 654.277 45.3004C654.102 45.138 653.831 45.0154 653.467 44.9325L652.174 44.6491C651.462 44.4867 650.935 44.2282 650.593 43.8736C650.255 43.5189 650.086 43.0698 650.086 42.5263C650.086 42.0755 650.212 41.6811 650.464 41.343C650.716 41.005 651.064 40.7415 651.508 40.5526C651.952 40.3603 652.461 40.2642 653.034 40.2642C653.86 40.2642 654.509 40.4432 654.983 40.8011C655.457 41.1558 655.77 41.6314 655.923 42.228Z" fill="#0F0F0F"/>
<path d="M703.655 37.8182V48H702.119V37.8182H703.655ZM705.773 48V40.3636H707.2V41.6065H707.294C707.453 41.1856 707.713 40.8575 708.075 40.6222C708.436 40.3835 708.868 40.2642 709.372 40.2642C709.883 40.2642 710.31 40.3835 710.655 40.6222C711.003 40.8608 711.26 41.1889 711.425 41.6065H711.505C711.687 41.1989 711.977 40.8741 712.375 40.6321C712.773 40.3868 713.247 40.2642 713.797 40.2642C714.49 40.2642 715.055 40.4813 715.492 40.9155C715.933 41.3497 716.153 42.0043 716.153 42.8793V48H714.667V43.0185C714.667 42.5014 714.526 42.1269 714.244 41.8949C713.963 41.6629 713.626 41.5469 713.235 41.5469C712.751 41.5469 712.375 41.696 712.107 41.9943C711.838 42.2893 711.704 42.6688 711.704 43.1328V48H710.222V42.924C710.222 42.5097 710.093 42.1766 709.835 41.9247C709.576 41.6728 709.24 41.5469 708.825 41.5469C708.544 41.5469 708.283 41.6214 708.045 41.7706C707.809 41.9164 707.619 42.1203 707.473 42.3821C707.33 42.6439 707.259 42.9472 707.259 43.2919V48H705.773ZM718.146 50.8636V40.3636H719.597V41.6016H719.722C719.808 41.4425 719.932 41.2585 720.095 41.0497C720.257 40.8409 720.482 40.6586 720.771 40.5028C721.059 40.3438 721.44 40.2642 721.914 40.2642C722.531 40.2642 723.081 40.42 723.565 40.7315C724.049 41.0431 724.428 41.4922 724.703 42.0788C724.982 42.6655 725.121 43.3714 725.121 44.1967C725.121 45.022 724.983 45.7296 724.708 46.3196C724.433 46.9062 724.055 47.3587 723.575 47.6768C723.094 47.9917 722.546 48.1491 721.929 48.1491C721.465 48.1491 721.086 48.0713 720.791 47.9155C720.499 47.7597 720.27 47.5774 720.105 47.3686C719.939 47.1598 719.811 46.9742 719.722 46.8118H719.632V50.8636H718.146ZM719.602 44.1818C719.602 44.7187 719.68 45.1894 719.836 45.5938C719.992 45.9981 720.217 46.3146 720.512 46.5433C720.807 46.7687 721.169 46.8814 721.596 46.8814C722.04 46.8814 722.411 46.7637 722.71 46.5284C723.008 46.2898 723.233 45.9666 723.386 45.5589C723.542 45.1513 723.619 44.6922 723.619 44.1818C723.619 43.678 723.543 43.2256 723.391 42.8246C723.242 42.4235 723.016 42.107 722.715 41.875C722.416 41.643 722.044 41.527 721.596 41.527C721.165 41.527 720.801 41.638 720.502 41.8601C720.207 42.0821 719.984 42.392 719.831 42.7898C719.679 43.1875 719.602 43.6515 719.602 44.1818ZM729.009 48.169C728.525 48.169 728.087 48.0795 727.696 47.9006C727.305 47.7183 726.995 47.4548 726.767 47.1101C726.541 46.7654 726.428 46.3428 726.428 45.8423C726.428 45.4115 726.511 45.0568 726.677 44.7784C726.843 44.5 727.066 44.2796 727.348 44.1172C727.63 43.9548 727.945 43.8321 728.293 43.7493C728.641 43.6664 728.995 43.6035 729.357 43.5604C729.814 43.5073 730.185 43.4643 730.47 43.4311C730.755 43.3946 730.963 43.3366 731.092 43.2571C731.221 43.1776 731.286 43.0483 731.286 42.8693V42.8345C731.286 42.4003 731.163 42.0639 730.918 41.8253C730.676 41.5866 730.315 41.4673 729.834 41.4673C729.334 41.4673 728.939 41.5784 728.651 41.8004C728.366 42.0192 728.169 42.2628 728.059 42.5312L726.662 42.2131C726.828 41.7491 727.07 41.3745 727.388 41.0895C727.709 40.8011 728.079 40.5923 728.497 40.4631C728.914 40.3305 729.353 40.2642 729.814 40.2642C730.119 40.2642 730.442 40.3007 730.784 40.3736C731.128 40.4432 731.45 40.5724 731.748 40.7614C732.05 40.9503 732.297 41.2204 732.489 41.5717C732.681 41.9197 732.777 42.3722 732.777 42.929V48H731.325V46.956H731.266C731.17 47.1482 731.026 47.3371 730.833 47.5227C730.641 47.7083 730.394 47.8625 730.093 47.9851C729.791 48.1077 729.43 48.169 729.009 48.169ZM729.332 46.9759C729.743 46.9759 730.094 46.8946 730.386 46.7322C730.681 46.5698 730.905 46.3577 731.057 46.0959C731.213 45.8307 731.291 45.5473 731.291 45.2457V44.2614C731.238 44.3144 731.135 44.3641 730.982 44.4105C730.833 44.4536 730.663 44.4917 730.47 44.5249C730.278 44.5547 730.091 44.5829 729.909 44.6094C729.726 44.6326 729.574 44.6525 729.451 44.669C729.163 44.7055 728.899 44.7668 728.661 44.853C728.425 44.9392 728.236 45.0634 728.094 45.2259C727.955 45.3849 727.885 45.5971 727.885 45.8622C727.885 46.2301 728.021 46.5085 728.293 46.6974C728.565 46.883 728.911 46.9759 729.332 46.9759ZM737.974 48.1541C737.235 48.1541 736.598 47.9867 736.065 47.652C735.534 47.3139 735.127 46.8482 734.842 46.255C734.557 45.6617 734.414 44.9822 734.414 44.2166C734.414 43.4411 734.56 42.7566 734.852 42.1634C735.143 41.5668 735.554 41.1011 736.085 40.7663C736.615 40.4316 737.24 40.2642 737.959 40.2642C738.539 40.2642 739.056 40.3719 739.51 40.5874C739.964 40.7995 740.33 41.0978 740.609 41.4822C740.89 41.8667 741.058 42.3158 741.111 42.8295H739.664C739.585 42.4716 739.402 42.1634 739.117 41.9048C738.835 41.6463 738.458 41.517 737.984 41.517C737.569 41.517 737.206 41.6264 736.895 41.8452C736.587 42.0606 736.346 42.3688 736.174 42.7699C736.002 43.1676 735.915 43.6383 735.915 44.1818C735.915 44.7386 736 45.2192 736.169 45.6236C736.338 46.0279 736.577 46.3411 736.885 46.5632C737.196 46.7853 737.563 46.8963 737.984 46.8963C738.265 46.8963 738.521 46.8449 738.749 46.7422C738.981 46.6361 739.175 46.4853 739.331 46.2898C739.49 46.0942 739.601 45.8589 739.664 45.5838H741.111C741.058 46.0777 740.897 46.5185 740.629 46.9062C740.36 47.294 740 47.599 739.55 47.821C739.102 48.0431 738.577 48.1541 737.974 48.1541ZM746.265 40.3636V41.5568H742.094V40.3636H746.265ZM743.213 38.5341H744.699V45.7578C744.699 46.0462 744.742 46.2633 744.828 46.4091C744.914 46.5516 745.026 46.6494 745.161 46.7024C745.301 46.7521 745.451 46.777 745.614 46.777C745.733 46.777 745.838 46.7687 745.927 46.7521C746.017 46.7356 746.086 46.7223 746.136 46.7124L746.404 47.9403C746.318 47.9735 746.195 48.0066 746.036 48.0398C745.877 48.0762 745.678 48.0961 745.44 48.0994C745.049 48.1061 744.684 48.0365 744.346 47.8906C744.008 47.7448 743.735 47.5194 743.526 47.2145C743.317 46.9096 743.213 46.5268 743.213 46.0661V38.5341Z" fill="#0F0F0F"/>
<path d="M800.963 42.9091C800.963 43.9962 800.764 44.9309 800.366 45.7131C799.969 46.492 799.424 47.0919 798.731 47.5128C798.041 47.9304 797.258 48.1392 796.379 48.1392C795.498 48.1392 794.71 47.9304 794.018 47.5128C793.328 47.0919 792.785 46.4903 792.387 45.7081C791.989 44.9259 791.79 43.9929 791.79 42.9091C791.79 41.822 791.989 40.889 792.387 40.1101C792.785 39.3279 793.328 38.728 794.018 38.3104C794.71 37.8894 795.498 37.679 796.379 37.679C797.258 37.679 798.041 37.8894 798.731 38.3104C799.424 38.728 799.969 39.3279 800.366 40.1101C800.764 40.889 800.963 41.822 800.963 42.9091ZM799.442 42.9091C799.442 42.0805 799.308 41.3828 799.039 40.8161C798.774 40.246 798.409 39.8151 797.945 39.5234C797.485 39.2285 796.963 39.081 796.379 39.081C795.793 39.081 795.269 39.2285 794.808 39.5234C794.348 39.8151 793.983 40.246 793.714 40.8161C793.449 41.3828 793.317 42.0805 793.317 42.9091C793.317 43.7377 793.449 44.437 793.714 45.0071C793.983 45.5739 794.348 46.0047 794.808 46.2997C795.269 46.5914 795.793 46.7372 796.379 46.7372C796.963 46.7372 797.485 46.5914 797.945 46.2997C798.409 46.0047 798.774 45.5739 799.039 45.0071C799.308 44.437 799.442 43.7377 799.442 42.9091ZM802.759 50.8636V40.3636H804.211V41.6016H804.335C804.421 41.4425 804.546 41.2585 804.708 41.0497C804.87 40.8409 805.096 40.6586 805.384 40.5028C805.672 40.3438 806.054 40.2642 806.528 40.2642C807.144 40.2642 807.694 40.42 808.178 40.7315C808.662 41.0431 809.041 41.4922 809.317 42.0788C809.595 42.6655 809.734 43.3714 809.734 44.1967C809.734 45.022 809.597 45.7296 809.322 46.3196C809.046 46.9062 808.669 47.3587 808.188 47.6768C807.707 47.9917 807.159 48.1491 806.542 48.1491C806.078 48.1491 805.699 48.0713 805.404 47.9155C805.112 47.7597 804.884 47.5774 804.718 47.3686C804.552 47.1598 804.425 46.9742 804.335 46.8118H804.246V50.8636H802.759ZM804.216 44.1818C804.216 44.7187 804.294 45.1894 804.449 45.5938C804.605 45.9981 804.831 46.3146 805.126 46.5433C805.421 46.7687 805.782 46.8814 806.209 46.8814C806.653 46.8814 807.025 46.7637 807.323 46.5284C807.621 46.2898 807.847 45.9666 807.999 45.5589C808.155 45.1513 808.233 44.6922 808.233 44.1818C808.233 43.678 808.157 43.2256 808.004 42.8246C807.855 42.4235 807.63 42.107 807.328 41.875C807.03 41.643 806.657 41.527 806.209 41.527C805.778 41.527 805.414 41.638 805.116 41.8601C804.821 42.0821 804.597 42.392 804.444 42.7898C804.292 43.1875 804.216 43.6515 804.216 44.1818ZM814.691 48.1541C813.939 48.1541 813.291 47.9934 812.747 47.6719C812.207 47.3471 811.789 46.8913 811.494 46.3047C811.202 45.7147 811.057 45.0237 811.057 44.2315C811.057 43.4493 811.202 42.7599 811.494 42.1634C811.789 41.5668 812.2 41.1011 812.727 40.7663C813.257 40.4316 813.877 40.2642 814.586 40.2642C815.017 40.2642 815.435 40.3355 815.839 40.478C816.244 40.6205 816.607 40.8442 816.928 41.1491C817.25 41.4541 817.503 41.8501 817.689 42.3374C817.874 42.8213 817.967 43.4096 817.967 44.1023V44.6293H811.897V43.5156H816.51C816.51 43.1245 816.431 42.7782 816.272 42.4766C816.113 42.1716 815.889 41.9313 815.601 41.7557C815.316 41.58 814.981 41.4922 814.596 41.4922C814.179 41.4922 813.814 41.5949 813.503 41.8004C813.194 42.0026 812.956 42.2678 812.787 42.5959C812.621 42.9207 812.538 43.2737 812.538 43.6548V44.5249C812.538 45.0353 812.628 45.4695 812.807 45.8274C812.989 46.1854 813.242 46.4588 813.567 46.6477C813.892 46.8333 814.272 46.9261 814.706 46.9261C814.988 46.9261 815.244 46.8864 815.476 46.8068C815.708 46.724 815.909 46.6013 816.078 46.4389C816.247 46.2765 816.376 46.076 816.466 45.8374L817.873 46.0909C817.76 46.5052 817.558 46.8681 817.266 47.1797C816.978 47.4879 816.615 47.7282 816.177 47.9006C815.743 48.0696 815.248 48.1541 814.691 48.1541ZM819.616 48V40.3636H821.053V41.5767H821.133C821.272 41.1657 821.517 40.8426 821.869 40.6072C822.223 40.3686 822.624 40.2493 823.072 40.2493C823.165 40.2493 823.274 40.2526 823.4 40.2592C823.529 40.2659 823.63 40.2741 823.703 40.2841V41.706C823.643 41.6894 823.537 41.6712 823.385 41.6513C823.232 41.6281 823.08 41.6165 822.928 41.6165C822.576 41.6165 822.263 41.6911 821.988 41.8402C821.716 41.986 821.501 42.1899 821.342 42.4517C821.183 42.7102 821.103 43.0052 821.103 43.3366V48H819.616ZM827.143 48.169C826.66 48.169 826.222 48.0795 825.831 47.9006C825.44 47.7183 825.13 47.4548 824.901 47.1101C824.676 46.7654 824.563 46.3428 824.563 45.8423C824.563 45.4115 824.646 45.0568 824.812 44.7784C824.978 44.5 825.201 44.2796 825.483 44.1172C825.765 43.9548 826.08 43.8321 826.428 43.7493C826.776 43.6664 827.13 43.6035 827.491 43.5604C827.949 43.5073 828.32 43.4643 828.605 43.4311C828.89 43.3946 829.097 43.3366 829.227 43.2571C829.356 43.1776 829.42 43.0483 829.42 42.8693V42.8345C829.42 42.4003 829.298 42.0639 829.053 41.8253C828.811 41.5866 828.449 41.4673 827.969 41.4673C827.468 41.4673 827.074 41.5784 826.786 41.8004C826.5 42.0192 826.303 42.2628 826.194 42.5312L824.797 42.2131C824.963 41.7491 825.205 41.3745 825.523 41.0895C825.844 40.8011 826.214 40.5923 826.631 40.4631C827.049 40.3305 827.488 40.2642 827.949 40.2642C828.254 40.2642 828.577 40.3007 828.918 40.3736C829.263 40.4432 829.585 40.5724 829.883 40.7614C830.184 40.9503 830.431 41.2204 830.624 41.5717C830.816 41.9197 830.912 42.3722 830.912 42.929V48H829.46V46.956H829.401C829.304 47.1482 829.16 47.3371 828.968 47.5227C828.776 47.7083 828.529 47.8625 828.227 47.9851C827.926 48.1077 827.564 48.169 827.143 48.169ZM827.467 46.9759C827.878 46.9759 828.229 46.8946 828.521 46.7322C828.816 46.5698 829.039 46.3577 829.192 46.0959C829.348 45.8307 829.425 45.5473 829.425 45.2457V44.2614C829.372 44.3144 829.27 44.3641 829.117 44.4105C828.968 44.4536 828.797 44.4917 828.605 44.5249C828.413 44.5547 828.226 44.5829 828.043 44.6094C827.861 44.6326 827.709 44.6525 827.586 44.669C827.298 44.7055 827.034 44.7668 826.795 44.853C826.56 44.9392 826.371 45.0634 826.229 45.2259C826.089 45.3849 826.02 45.5971 826.02 45.8622C826.02 46.2301 826.156 46.5085 826.428 46.6974C826.699 46.883 827.046 46.9759 827.467 46.9759ZM836.456 40.3636V41.5568H832.285V40.3636H836.456ZM833.404 38.5341H834.89V45.7578C834.89 46.0462 834.934 46.2633 835.02 46.4091C835.106 46.5516 835.217 46.6494 835.353 46.7024C835.492 46.7521 835.643 46.777 835.805 46.777C835.925 46.777 836.029 46.7687 836.118 46.7521C836.208 46.7356 836.278 46.7223 836.327 46.7124L836.596 47.9403C836.51 47.9735 836.387 48.0066 836.228 48.0398C836.069 48.0762 835.87 48.0961 835.631 48.0994C835.24 48.1061 834.876 48.0365 834.537 47.8906C834.199 47.7448 833.926 47.5194 833.717 47.2145C833.508 46.9096 833.404 46.5268 833.404 46.0661V38.5341ZM838.101 48V40.3636H839.587V48H838.101ZM838.852 39.1854C838.593 39.1854 838.371 39.0992 838.185 38.9268C838.003 38.7512 837.912 38.5424 837.912 38.3004C837.912 38.0552 838.003 37.8464 838.185 37.674C838.371 37.4983 838.593 37.4105 838.852 37.4105C839.11 37.4105 839.33 37.4983 839.513 37.674C839.698 37.8464 839.791 38.0552 839.791 38.3004C839.791 38.5424 839.698 38.7512 839.513 38.9268C839.33 39.0992 839.11 39.1854 838.852 39.1854ZM844.804 48.1541C844.088 48.1541 843.463 47.9901 842.93 47.6619C842.396 47.3338 841.982 46.8748 841.687 46.2848C841.392 45.6948 841.244 45.0054 841.244 44.2166C841.244 43.4245 841.392 42.7318 841.687 42.1385C841.982 41.5452 842.396 41.0845 842.93 40.7564C843.463 40.4283 844.088 40.2642 844.804 40.2642C845.52 40.2642 846.144 40.4283 846.678 40.7564C847.212 41.0845 847.626 41.5452 847.921 42.1385C848.216 42.7318 848.363 43.4245 848.363 44.2166C848.363 45.0054 848.216 45.6948 847.921 46.2848C847.626 46.8748 847.212 47.3338 846.678 47.6619C846.144 47.9901 845.52 48.1541 844.804 48.1541ZM844.809 46.9062C845.273 46.9062 845.657 46.7836 845.962 46.5384C846.267 46.2931 846.492 45.9666 846.638 45.5589C846.787 45.1513 846.862 44.7022 846.862 44.2116C846.862 43.7244 846.787 43.277 846.638 42.8693C846.492 42.4583 846.267 42.1286 845.962 41.88C845.657 41.6314 845.273 41.5071 844.809 41.5071C844.341 41.5071 843.954 41.6314 843.645 41.88C843.34 42.1286 843.113 42.4583 842.964 42.8693C842.818 43.277 842.746 43.7244 842.746 44.2116C842.746 44.7022 842.818 45.1513 842.964 45.5589C843.113 45.9666 843.34 46.2931 843.645 46.5384C843.954 46.7836 844.341 46.9062 844.809 46.9062ZM851.509 43.4659V48H850.023V40.3636H851.45V41.6065H851.544C851.72 41.2022 851.995 40.8774 852.369 40.6321C852.747 40.3868 853.223 40.2642 853.796 40.2642C854.317 40.2642 854.772 40.3736 855.163 40.5923C855.554 40.8078 855.858 41.1293 856.073 41.5568C856.289 41.9844 856.396 42.513 856.396 43.1428V48H854.91V43.3217C854.91 42.7682 854.766 42.3357 854.477 42.0241C854.189 41.7093 853.793 41.5518 853.289 41.5518C852.944 41.5518 852.638 41.6264 852.369 41.7756C852.104 41.9247 851.894 42.1435 851.738 42.4318C851.585 42.7169 851.509 43.0616 851.509 43.4659ZM864.112 42.228L862.765 42.4666C862.709 42.2943 862.619 42.1302 862.496 41.9744C862.377 41.8187 862.215 41.6911 862.009 41.5916C861.804 41.4922 861.547 41.4425 861.239 41.4425C860.818 41.4425 860.466 41.5369 860.185 41.7259C859.903 41.9115 859.762 42.1518 859.762 42.4467C859.762 42.7019 859.857 42.9074 860.045 43.0632C860.234 43.219 860.539 43.3466 860.96 43.446L862.173 43.7244C862.876 43.8868 863.4 44.1371 863.744 44.4751C864.089 44.8132 864.261 45.2524 864.261 45.7926C864.261 46.25 864.129 46.6577 863.864 47.0156C863.602 47.3703 863.236 47.6487 862.765 47.8509C862.298 48.053 861.756 48.1541 861.139 48.1541C860.284 48.1541 859.586 47.9718 859.046 47.6072C858.506 47.2393 858.174 46.7173 858.052 46.0412L859.489 45.8224C859.578 46.197 859.762 46.4804 860.04 46.6726C860.319 46.8615 860.682 46.956 861.129 46.956C861.616 46.956 862.006 46.8549 862.298 46.6527C862.589 46.4472 862.735 46.197 862.735 45.902C862.735 45.6634 862.646 45.4628 862.467 45.3004C862.291 45.138 862.021 45.0154 861.656 44.9325L860.364 44.6491C859.651 44.4867 859.124 44.2282 858.783 43.8736C858.445 43.5189 858.276 43.0698 858.276 42.5263C858.276 42.0755 858.402 41.6811 858.653 41.343C858.905 41.005 859.253 40.7415 859.697 40.5526C860.142 40.3603 860.65 40.2642 861.224 40.2642C862.049 40.2642 862.699 40.4432 863.173 40.8011C863.647 41.1558 863.96 41.6314 864.112 42.228Z" fill="#0F0F0F"/>
<path d="M918.575 41.1293H917.024C916.964 40.7978 916.853 40.5062 916.691 40.2543C916.529 40.0024 916.33 39.7886 916.094 39.6129C915.859 39.4373 915.596 39.3047 915.304 39.2152C915.016 39.1257 914.709 39.081 914.384 39.081C913.798 39.081 913.272 39.2285 912.808 39.5234C912.348 39.8184 911.983 40.2509 911.714 40.821C911.449 41.3911 911.317 42.0871 911.317 42.9091C911.317 43.7377 911.449 44.437 911.714 45.0071C911.983 45.5772 912.349 46.008 912.813 46.2997C913.277 46.5914 913.799 46.7372 914.379 46.7372C914.701 46.7372 915.006 46.6941 915.294 46.608C915.586 46.5185 915.849 46.3875 916.085 46.2152C916.32 46.0429 916.519 45.8324 916.681 45.5838C916.847 45.3319 916.961 45.0436 917.024 44.7188L918.575 44.7237C918.492 45.2242 918.332 45.6849 918.093 46.1058C917.858 46.5234 917.554 46.8847 917.183 47.1896C916.815 47.4912 916.394 47.7249 915.92 47.8906C915.446 48.0563 914.929 48.1392 914.369 48.1392C913.488 48.1392 912.702 47.9304 912.013 47.5128C911.323 47.0919 910.78 46.4903 910.382 45.7081C909.988 44.9259 909.79 43.9929 909.79 42.9091C909.79 41.822 909.989 40.889 910.387 40.1101C910.785 39.3279 911.328 38.728 912.018 38.3104C912.707 37.8894 913.491 37.679 914.369 37.679C914.91 37.679 915.413 37.7569 915.881 37.9126C916.351 38.0651 916.774 38.2905 917.148 38.5888C917.523 38.8838 917.833 39.245 918.078 39.6726C918.323 40.0968 918.489 40.5824 918.575 41.1293ZM922.517 48.169C922.033 48.169 921.595 48.0795 921.204 47.9006C920.813 47.7183 920.503 47.4548 920.274 47.1101C920.049 46.7654 919.936 46.3428 919.936 45.8423C919.936 45.4115 920.019 45.0568 920.185 44.7784C920.351 44.5 920.574 44.2796 920.856 44.1172C921.138 43.9548 921.453 43.8321 921.801 43.7493C922.149 43.6664 922.503 43.6035 922.865 43.5604C923.322 43.5073 923.693 43.4643 923.978 43.4311C924.263 43.3946 924.47 43.3366 924.6 43.2571C924.729 43.1776 924.794 43.0483 924.794 42.8693V42.8345C924.794 42.4003 924.671 42.0639 924.426 41.8253C924.184 41.5866 923.822 41.4673 923.342 41.4673C922.841 41.4673 922.447 41.5784 922.159 41.8004C921.874 42.0192 921.676 42.2628 921.567 42.5312L920.17 42.2131C920.336 41.7491 920.578 41.3745 920.896 41.0895C921.217 40.8011 921.587 40.5923 922.004 40.4631C922.422 40.3305 922.861 40.2642 923.322 40.2642C923.627 40.2642 923.95 40.3007 924.291 40.3736C924.636 40.4432 924.958 40.5724 925.256 40.7614C925.557 40.9503 925.804 41.2204 925.997 41.5717C926.189 41.9197 926.285 42.3722 926.285 42.929V48H924.833V46.956H924.774C924.677 47.1482 924.533 47.3371 924.341 47.5227C924.149 47.7083 923.902 47.8625 923.6 47.9851C923.299 48.1077 922.937 48.169 922.517 48.169ZM922.84 46.9759C923.251 46.9759 923.602 46.8946 923.894 46.7322C924.189 46.5698 924.412 46.3577 924.565 46.0959C924.721 45.8307 924.798 45.5473 924.798 45.2457V44.2614C924.745 44.3144 924.643 44.3641 924.49 44.4105C924.341 44.4536 924.17 44.4917 923.978 44.5249C923.786 44.5547 923.599 44.5829 923.416 44.6094C923.234 44.6326 923.082 44.6525 922.959 44.669C922.671 44.7055 922.407 44.7668 922.169 44.853C921.933 44.9392 921.744 45.0634 921.602 45.2259C921.463 45.3849 921.393 45.5971 921.393 45.8622C921.393 46.2301 921.529 46.5085 921.801 46.6974C922.072 46.883 922.419 46.9759 922.84 46.9759ZM928.265 48V40.3636H929.702V41.5767H929.781C929.92 41.1657 930.166 40.8426 930.517 40.6072C930.872 40.3686 931.273 40.2493 931.72 40.2493C931.813 40.2493 931.922 40.2526 932.048 40.2592C932.178 40.2659 932.279 40.2741 932.352 40.2841V41.706C932.292 41.6894 932.186 41.6712 932.033 41.6513C931.881 41.6281 931.728 41.6165 931.576 41.6165C931.225 41.6165 930.911 41.6911 930.636 41.8402C930.365 41.986 930.149 42.1899 929.99 42.4517C929.831 42.7102 929.751 43.0052 929.751 43.3366V48H928.265ZM936.656 48.1541C935.903 48.1541 935.255 47.9934 934.712 47.6719C934.172 47.3471 933.754 46.8913 933.459 46.3047C933.167 45.7147 933.021 45.0237 933.021 44.2315C933.021 43.4493 933.167 42.7599 933.459 42.1634C933.754 41.5668 934.165 41.1011 934.692 40.7663C935.222 40.4316 935.842 40.2642 936.551 40.2642C936.982 40.2642 937.4 40.3355 937.804 40.478C938.209 40.6205 938.571 40.8442 938.893 41.1491C939.214 41.4541 939.468 41.8501 939.654 42.3374C939.839 42.8213 939.932 43.4096 939.932 44.1023V44.6293H933.862V43.5156H938.475C938.475 43.1245 938.396 42.7782 938.237 42.4766C938.078 42.1716 937.854 41.9313 937.566 41.7557C937.28 41.58 936.946 41.4922 936.561 41.4922C936.144 41.4922 935.779 41.5949 935.468 41.8004C935.159 42.0026 934.921 42.2678 934.752 42.5959C934.586 42.9207 934.503 43.2737 934.503 43.6548V44.5249C934.503 45.0353 934.593 45.4695 934.771 45.8274C934.954 46.1854 935.207 46.4588 935.532 46.6477C935.857 46.8333 936.236 46.9261 936.671 46.9261C936.952 46.9261 937.209 46.8864 937.441 46.8068C937.673 46.724 937.874 46.6013 938.043 46.4389C938.212 46.2765 938.341 46.076 938.431 45.8374L939.838 46.0909C939.725 46.5052 939.523 46.8681 939.231 47.1797C938.943 47.4879 938.58 47.7282 938.142 47.9006C937.708 48.0696 937.213 48.1541 936.656 48.1541ZM944.873 48.1541C944.12 48.1541 943.472 47.9934 942.929 47.6719C942.388 47.3471 941.971 46.8913 941.676 46.3047C941.384 45.7147 941.238 45.0237 941.238 44.2315C941.238 43.4493 941.384 42.7599 941.676 42.1634C941.971 41.5668 942.382 41.1011 942.909 40.7663C943.439 40.4316 944.059 40.2642 944.768 40.2642C945.199 40.2642 945.617 40.3355 946.021 40.478C946.425 40.6205 946.788 40.8442 947.11 41.1491C947.431 41.4541 947.685 41.8501 947.87 42.3374C948.056 42.8213 948.149 43.4096 948.149 44.1023V44.6293H942.078V43.5156H946.692C946.692 43.1245 946.613 42.7782 946.453 42.4766C946.294 42.1716 946.071 41.9313 945.782 41.7557C945.497 41.58 945.163 41.4922 944.778 41.4922C944.36 41.4922 943.996 41.5949 943.684 41.8004C943.376 42.0026 943.137 42.2678 942.968 42.5959C942.803 42.9207 942.72 43.2737 942.72 43.6548V44.5249C942.72 45.0353 942.809 45.4695 942.988 45.8274C943.171 46.1854 943.424 46.4588 943.749 46.6477C944.074 46.8333 944.453 46.9261 944.887 46.9261C945.169 46.9261 945.426 46.8864 945.658 46.8068C945.89 46.724 946.091 46.6013 946.26 46.4389C946.429 46.2765 946.558 46.076 946.647 45.8374L948.054 46.0909C947.942 46.5052 947.739 46.8681 947.448 47.1797C947.159 47.4879 946.797 47.7282 946.359 47.9006C945.925 48.0696 945.429 48.1541 944.873 48.1541ZM949.798 48V40.3636H951.235V41.5767H951.314C951.454 41.1657 951.699 40.8426 952.05 40.6072C952.405 40.3686 952.806 40.2493 953.253 40.2493C953.346 40.2493 953.456 40.2526 953.581 40.2592C953.711 40.2659 953.812 40.2741 953.885 40.2841V41.706C953.825 41.6894 953.719 41.6712 953.567 41.6513C953.414 41.6281 953.262 41.6165 953.109 41.6165C952.758 41.6165 952.445 41.6911 952.17 41.8402C951.898 41.986 951.682 42.1899 951.523 42.4517C951.364 42.7102 951.285 43.0052 951.285 43.3366V48H949.798Z" fill="#0F0F0F"/>
<rect x="1179" y="21" width="171" height="44" rx="22" fill="white"/>
<rect x="1179.5" y="21.5" width="170" height="43" rx="21.5" stroke="#838396" stroke-opacity="0.22"/>
<path d="M1216.78 49V37.3636H1221.04C1221.87 37.3636 1222.55 37.5 1223.09 37.7727C1223.63 38.0417 1224.04 38.4072 1224.31 38.8693C1224.58 39.3277 1224.71 39.8447 1224.71 40.4205C1224.71 40.9053 1224.62 41.3144 1224.44 41.6477C1224.27 41.9773 1224.03 42.2424 1223.73 42.4432C1223.43 42.6402 1223.11 42.7841 1222.75 42.875V42.9886C1223.14 43.0076 1223.51 43.1326 1223.88 43.3636C1224.25 43.5909 1224.56 43.9148 1224.8 44.3352C1225.04 44.7557 1225.16 45.267 1225.16 45.8693C1225.16 46.464 1225.02 46.9981 1224.74 47.4716C1224.47 47.9413 1224.04 48.3144 1223.46 48.5909C1222.88 48.8636 1222.14 49 1221.24 49H1216.78ZM1218.53 47.4943H1221.07C1221.91 47.4943 1222.51 47.3314 1222.88 47.0057C1223.24 46.6799 1223.42 46.2727 1223.42 45.7841C1223.42 45.4167 1223.33 45.0795 1223.14 44.7727C1222.96 44.4659 1222.69 44.2216 1222.35 44.0398C1222.01 43.858 1221.6 43.767 1221.13 43.767H1218.53V47.4943ZM1218.53 42.3977H1220.89C1221.28 42.3977 1221.63 42.322 1221.95 42.1705C1222.27 42.0189 1222.52 41.8068 1222.7 41.5341C1222.89 41.2576 1222.99 40.9318 1222.99 40.5568C1222.99 40.0758 1222.82 39.6723 1222.48 39.3466C1222.15 39.0208 1221.63 38.858 1220.93 38.858H1218.53V42.3977ZM1232.64 45.3807V40.2727H1234.34V49H1232.67V47.4886H1232.58C1232.38 47.9545 1232.06 48.3428 1231.62 48.6534C1231.18 48.9602 1230.63 49.1136 1229.97 49.1136C1229.41 49.1136 1228.92 48.9905 1228.49 48.7443C1228.06 48.4943 1227.72 48.125 1227.47 47.6364C1227.23 47.1477 1227.11 46.5436 1227.11 45.8239V40.2727H1228.81V45.6193C1228.81 46.214 1228.97 46.6875 1229.3 47.0398C1229.63 47.392 1230.06 47.5682 1230.59 47.5682C1230.91 47.5682 1231.22 47.4886 1231.54 47.3295C1231.86 47.1705 1232.12 46.9299 1232.33 46.608C1232.54 46.286 1232.64 45.8769 1232.64 45.3807ZM1236.63 49V40.2727H1238.33V49H1236.63ZM1237.48 38.9261C1237.19 38.9261 1236.94 38.8277 1236.72 38.6307C1236.51 38.4299 1236.41 38.1913 1236.41 37.9148C1236.41 37.6345 1236.51 37.3958 1236.72 37.1989C1236.94 36.9981 1237.19 36.8977 1237.48 36.8977C1237.78 36.8977 1238.03 36.9981 1238.24 37.1989C1238.45 37.3958 1238.56 37.6345 1238.56 37.9148C1238.56 38.1913 1238.45 38.4299 1238.24 38.6307C1238.03 38.8277 1237.78 38.9261 1237.48 38.9261ZM1242.31 37.3636V49H1240.61V37.3636H1242.31ZM1247.86 49.1705C1247.16 49.1705 1246.53 48.9905 1245.98 48.6307C1245.43 48.267 1244.99 47.75 1244.68 47.0795C1244.37 46.4053 1244.21 45.5966 1244.21 44.6534C1244.21 43.7102 1244.37 42.9034 1244.69 42.233C1245 41.5625 1245.44 41.0492 1245.99 40.6932C1246.55 40.3371 1247.17 40.1591 1247.87 40.1591C1248.42 40.1591 1248.85 40.25 1249.18 40.4318C1249.51 40.6098 1249.77 40.8182 1249.95 41.0568C1250.14 41.2955 1250.28 41.5057 1250.38 41.6875H1250.49V37.3636H1252.19V49H1250.53V47.642H1250.38C1250.28 47.8277 1250.13 48.0398 1249.94 48.2784C1249.75 48.517 1249.49 48.7254 1249.16 48.9034C1248.82 49.0814 1248.39 49.1705 1247.86 49.1705ZM1248.24 47.7216C1248.73 47.7216 1249.14 47.5928 1249.48 47.3352C1249.82 47.0739 1250.07 46.7121 1250.25 46.25C1250.43 45.7879 1250.52 45.25 1250.52 44.6364C1250.52 44.0303 1250.43 43.5 1250.25 43.0455C1250.08 42.5909 1249.82 42.2367 1249.49 41.983C1249.15 41.7292 1248.73 41.6023 1248.24 41.6023C1247.73 41.6023 1247.3 41.7348 1246.96 42C1246.62 42.2652 1246.36 42.6269 1246.19 43.0852C1246.02 43.5436 1245.93 44.0606 1245.93 44.6364C1245.93 45.2197 1246.02 45.7443 1246.19 46.2102C1246.37 46.6761 1246.62 47.0455 1246.96 47.3182C1247.31 47.5871 1247.73 47.7216 1248.24 47.7216ZM1260.74 49L1258.17 40.2727H1259.92L1261.63 46.6818H1261.72L1263.44 40.2727H1265.19L1266.9 46.6534H1266.98L1268.68 40.2727H1270.44L1267.87 49H1266.14L1264.37 42.6989H1264.24L1262.46 49H1260.74ZM1272.05 49V40.2727H1273.75V49H1272.05ZM1272.91 38.9261C1272.61 38.9261 1272.36 38.8277 1272.14 38.6307C1271.94 38.4299 1271.83 38.1913 1271.83 37.9148C1271.83 37.6345 1271.94 37.3958 1272.14 37.1989C1272.36 36.9981 1272.61 36.8977 1272.91 36.8977C1273.2 36.8977 1273.45 36.9981 1273.66 37.1989C1273.87 37.3958 1273.98 37.6345 1273.98 37.9148C1273.98 38.1913 1273.87 38.4299 1273.66 38.6307C1273.45 38.8277 1273.2 38.9261 1272.91 38.9261ZM1280.11 40.2727V41.6364H1275.34V40.2727H1280.11ZM1276.62 38.1818H1278.32V46.4375C1278.32 46.767 1278.37 47.0152 1278.46 47.1818C1278.56 47.3447 1278.69 47.4564 1278.85 47.517C1279 47.5739 1279.18 47.6023 1279.36 47.6023C1279.5 47.6023 1279.62 47.5928 1279.72 47.5739C1279.82 47.5549 1279.9 47.5398 1279.96 47.5284L1280.27 48.9318C1280.17 48.9697 1280.03 49.0076 1279.85 49.0455C1279.66 49.0871 1279.44 49.1098 1279.16 49.1136C1278.72 49.1212 1278.3 49.0417 1277.91 48.875C1277.53 48.7083 1277.21 48.4508 1276.98 48.1023C1276.74 47.7538 1276.62 47.3163 1276.62 46.7898V38.1818ZM1283.87 43.8182V49H1282.17V37.3636H1283.85V41.6932H1283.96C1284.16 41.2235 1284.47 40.8504 1284.89 40.5739C1285.32 40.2973 1285.86 40.1591 1286.54 40.1591C1287.14 40.1591 1287.66 40.2822 1288.11 40.5284C1288.56 40.7746 1288.91 41.142 1289.16 41.6307C1289.41 42.1155 1289.53 42.7216 1289.53 43.4489V49H1287.83V43.6534C1287.83 43.0133 1287.67 42.517 1287.34 42.1648C1287.01 41.8087 1286.55 41.6307 1285.96 41.6307C1285.56 41.6307 1285.2 41.7159 1284.88 41.8864C1284.57 42.0568 1284.32 42.3068 1284.14 42.6364C1283.96 42.9621 1283.87 43.3561 1283.87 43.8182ZM1301.56 45.3807V40.2727H1303.27V49H1301.6V47.4886H1301.5C1301.3 47.9545 1300.98 48.3428 1300.54 48.6534C1300.1 48.9602 1299.55 49.1136 1298.9 49.1136C1298.34 49.1136 1297.84 48.9905 1297.41 48.7443C1296.98 48.4943 1296.64 48.125 1296.4 47.6364C1296.15 47.1477 1296.03 46.5436 1296.03 45.8239V40.2727H1297.73V45.6193C1297.73 46.214 1297.9 46.6875 1298.23 47.0398C1298.56 47.392 1298.98 47.5682 1299.51 47.5682C1299.83 47.5682 1300.14 47.4886 1300.46 47.3295C1300.78 47.1705 1301.04 46.9299 1301.25 46.608C1301.46 46.286 1301.56 45.8769 1301.56 45.3807ZM1312.09 42.4034L1310.55 42.6761C1310.48 42.4792 1310.38 42.2917 1310.24 42.1136C1310.11 41.9356 1309.92 41.7898 1309.68 41.6761C1309.45 41.5625 1309.16 41.5057 1308.8 41.5057C1308.32 41.5057 1307.92 41.6136 1307.6 41.8295C1307.28 42.0417 1307.12 42.3163 1307.12 42.6534C1307.12 42.9451 1307.22 43.1799 1307.44 43.358C1307.66 43.536 1308 43.6818 1308.49 43.7955L1309.87 44.1136C1310.68 44.2992 1311.27 44.5852 1311.67 44.9716C1312.06 45.358 1312.26 45.8598 1312.26 46.4773C1312.26 47 1312.11 47.4659 1311.8 47.875C1311.5 48.2803 1311.09 48.5985 1310.55 48.8295C1310.01 49.0606 1309.39 49.1761 1308.69 49.1761C1307.71 49.1761 1306.92 48.9678 1306.3 48.5511C1305.68 48.1307 1305.3 47.5341 1305.16 46.7614L1306.8 46.5114C1306.91 46.9394 1307.12 47.2633 1307.43 47.483C1307.75 47.6989 1308.17 47.8068 1308.68 47.8068C1309.24 47.8068 1309.68 47.6913 1310.01 47.4602C1310.35 47.2254 1310.51 46.9394 1310.51 46.6023C1310.51 46.3295 1310.41 46.1004 1310.21 45.9148C1310.01 45.7292 1309.7 45.589 1309.28 45.4943L1307.8 45.1705C1306.99 44.9848 1306.39 44.6894 1306 44.2841C1305.61 43.8788 1305.42 43.3655 1305.42 42.7443C1305.42 42.2292 1305.56 41.7784 1305.85 41.392C1306.14 41.0057 1306.54 40.7045 1307.04 40.4886C1307.55 40.2689 1308.13 40.1591 1308.79 40.1591C1309.73 40.1591 1310.47 40.3636 1311.01 40.7727C1311.56 41.178 1311.91 41.7216 1312.09 42.4034Z" fill="#0F0F0F"/>
</svg>
